<svg width="260" height="69" viewBox="0 0 260 69" fill="none" xmlns="http://www.w3.org/2000/svg">
<path d="M130.777 2.43956L129.147 2.37359C128.391 2.34257 127.642 2.5356 127 2.92725C126.358 3.3189 125.852 3.89085 125.549 4.5681L124.132 7.67342C123.972 8.02331 123.903 8.40619 123.93 8.7884C123.957 9.17061 124.08 9.54048 124.288 9.86545C124.493 10.1887 124.778 10.4569 125.116 10.6456C125.454 10.8344 125.835 10.9377 126.225 10.9462L127.08 10.964H127.166C127.94 10.9616 128.697 10.7431 129.347 10.3345C129.998 9.92583 130.515 9.34398 130.837 8.65779L132.478 5.20235C132.616 4.91177 132.679 4.5927 132.661 4.27296C132.643 3.95321 132.546 3.64253 132.377 3.3681C132.21 3.09541 131.977 2.86746 131.698 2.70489C131.419 2.54231 131.102 2.45023 130.777 2.437" fill="#1F1F49"/>
<path d="M88.9928 47.1242C88.0757 47.112 87.1701 46.9231 86.3281 46.5684C85.486 46.2137 84.7241 45.7001 84.0861 45.0573C83.448 44.4144 82.9464 43.6549 82.6101 42.8223C82.2737 41.9897 82.1092 41.1005 82.1261 40.2057V20.9827H86.9414C87.7503 20.9773 88.524 20.6591 89.0928 20.0979C89.6616 19.5367 89.979 18.7782 89.9756 17.9889V17.0985C89.9797 16.3087 89.6624 15.5496 89.0936 14.9879C88.5247 14.4261 87.7507 14.1076 86.9414 14.1022H82.1261V3.1321C82.1295 2.3428 81.8121 1.58436 81.2433 1.02315C80.6745 0.461942 79.9008 0.143795 79.0919 0.138428H78.2651C77.4562 0.143795 76.6825 0.461942 76.1137 1.02315C75.5449 1.58436 75.2275 2.3428 75.2309 3.1321V40.2032C75.1744 41.8976 75.4643 43.586 76.0839 45.1698C76.7035 46.7537 77.6404 48.2012 78.8397 49.4278C80.1798 50.6708 81.7596 51.6418 83.4873 52.2842C85.2151 52.9266 87.0564 53.2276 88.9044 53.1699H88.9641C89.7698 53.1586 90.5382 52.8366 91.1013 52.2742C91.6645 51.7118 91.9766 50.9549 91.9697 50.1687V50.1128C91.9655 49.3349 91.6529 48.5887 91.0975 48.0307C90.5421 47.4726 89.7869 47.1459 88.9901 47.1191" fill="#1F1F49"/>
<path d="M113.864 13.7142C112.517 13.6719 111.169 13.805 109.858 14.11C106.699 14.5444 103.808 16.0779 101.717 18.4281C99.6256 20.7783 98.4752 23.7868 98.4776 26.8992V49.5676C98.4649 50.0217 98.5456 50.4736 98.7149 50.8968C98.8842 51.3199 99.1386 51.7056 99.4632 52.0312C99.7879 52.3568 100.176 52.6156 100.605 52.7923C101.034 52.969 101.495 53.06 101.96 53.06C102.426 53.06 102.887 52.969 103.315 52.7923C103.744 52.6156 104.133 52.3568 104.457 52.0312C104.782 51.7056 105.036 51.3199 105.206 50.8968C105.375 50.4736 105.456 50.0217 105.443 49.5676V26.8992C105.49 25.4295 106.065 24.0229 107.069 22.9261C108.073 21.8294 109.44 21.1126 110.932 20.9016C111.864 20.7187 112.81 20.6135 113.76 20.5871C114.681 20.5793 115.561 20.2205 116.214 19.5873C116.867 18.9541 117.239 18.0969 117.253 17.199C117.266 16.3011 116.919 15.4337 116.285 14.7825C115.651 14.1313 114.784 13.7478 113.864 13.7142Z" fill="#1F1F49"/>
<path d="M126.428 13.8816C125.498 13.8883 124.61 14.2541 123.957 14.899C123.304 15.5439 122.94 16.4152 122.944 17.3218V49.5624C122.931 50.0164 123.012 50.4684 123.181 50.8916C123.35 51.3147 123.605 51.7005 123.929 52.0261C124.254 52.3516 124.642 52.6104 125.071 52.7871C125.5 52.9638 125.961 53.0548 126.426 53.0548C126.892 53.0548 127.353 52.9638 127.782 52.7871C128.21 52.6104 128.599 52.3516 128.923 52.0261C129.248 51.7005 129.503 51.3147 129.672 50.8916C129.841 50.4684 129.922 50.0164 129.909 49.5624V17.3218C129.914 16.4154 129.55 15.5441 128.897 14.8992C128.245 14.2542 127.356 13.8883 126.428 13.8816Z" fill="#1F1F49"/>
<path d="M150.311 46.2059C148.961 45.982 147.754 45.2526 146.947 44.1731C146.14 43.0936 145.797 41.7494 145.99 40.4265V3.49252C146.003 3.03843 145.922 2.58646 145.753 2.1633C145.583 1.74015 145.329 1.35438 145.004 1.02881C144.68 0.703242 144.291 0.444432 143.863 0.267732C143.434 0.0910321 142.973 0 142.507 0C142.042 0 141.581 0.0910321 141.152 0.267732C140.723 0.444432 140.335 0.703242 140.01 1.02881C139.686 1.35438 139.431 1.74015 139.262 2.1633C139.093 2.58646 139.012 3.03843 139.025 3.49252V40.4265C139.025 47.3095 142.54 51.7645 148.92 52.9722C149.429 53.069 149.954 53.0544 150.457 52.9294C150.96 52.8045 151.428 52.5722 151.827 52.2495C152.227 51.9268 152.548 51.5215 152.768 51.063C152.988 50.6045 153.101 50.1041 153.098 49.5979V49.57C153.096 48.7835 152.818 48.0214 152.311 47.4097C151.804 46.7981 151.099 46.3734 150.311 46.2059Z" fill="#1F1F49"/>
<path d="M171.709 13.1509C164.294 13.2245 156.312 17.375 156.312 26.313V40.5686C156.312 49.5091 164.294 53.6596 171.72 53.7307C179.065 53.6571 186.969 49.5065 186.969 40.5686V26.313C186.969 17.3725 179.065 13.2219 171.72 13.1509H171.709ZM180 26.313V40.5686C180 44.9373 175.706 46.9263 171.715 46.9263C167.651 46.9263 163.278 44.9373 163.278 40.5686V26.313C163.278 21.9721 167.516 20.0288 171.715 20.0288C175.706 20.0288 180.003 21.9949 180.003 26.313" fill="#1F1F49"/>
<path d="M244.741 13.1509C237.325 13.2245 229.344 17.375 229.344 26.313V40.5686C229.344 49.5091 237.325 53.6596 244.751 53.7307C252.096 53.6571 260 49.5065 260 40.5686V26.313C260 17.3725 252.096 13.2219 244.751 13.1509H244.741ZM236.309 26.313C236.309 21.9721 240.547 20.0288 244.746 20.0288C248.737 20.0288 253.032 21.9949 253.032 26.313V40.5686C253.032 44.9373 248.737 46.9263 244.746 46.9263C240.682 46.9263 236.309 44.9373 236.309 40.5686V26.313Z" fill="#1F1F49"/>
<path d="M223.998 50.6888C223.998 47.548 223.938 44.9628 223.938 41.8219V20.3054C224.01 19.725 223.92 19.1365 223.68 18.6012C223.439 18.0658 223.056 17.603 222.57 17.2609C218.205 14.596 213.16 13.1823 208.01 13.1814C198.356 13.1814 192.343 18.7807 191.513 28.5432C191.292 31.6896 191.292 34.8471 191.513 37.9935C192.397 47.7789 197.974 53.1676 207.217 53.1676C210.655 53.1659 214.043 52.3621 217.097 50.8233H217.131C217.131 51.9092 217.064 53.8272 216.973 54.5122C216.779 56.4171 215.932 58.2024 214.57 59.5795C213.207 60.9566 211.408 61.8448 209.464 62.1004C208.925 62.1776 208.381 62.2158 207.836 62.2146C204.779 62.2706 201.766 61.4902 199.139 59.9617L198.918 59.8374C198.116 59.2705 197.168 58.9339 196.18 58.8657C195.3 58.8817 194.463 59.2381 193.852 59.8566C193.241 60.4751 192.907 61.305 192.923 62.1638C192.952 62.9094 193.193 63.6323 193.62 64.2519C194.046 64.8714 194.639 65.3633 195.335 65.6725C199.084 67.9365 203.426 69.0886 207.833 68.9885C211.765 69.1392 215.607 67.8097 218.562 65.275C221.518 62.7402 223.363 59.194 223.714 55.3697C223.884 54.2669 223.97 53.1536 223.974 52.0386C223.974 51.2572 223.987 51.4753 223.99 50.6939L223.998 50.6888ZM217.053 43.8059C214.397 45.6579 211.199 46.6241 207.935 46.5611C201.867 46.5611 198.819 43.6613 198.346 37.4431C198.232 35.4667 198.175 31.2425 198.346 29.119C198.866 23.1088 202.111 20.0618 208.008 20.0618C211.17 20.0783 214.279 20.863 217.053 22.3451V43.8059Z" fill="#1F1F49"/>
<path d="M38.7268 0C35.7091 0 32.1885 0.492652 29.6738 1.47796C26.6561 0.492652 23.6384 0 20.6207 0C10.5618 0 0 5.41917 0 17.2428V37.4416C0 49.2652 10.5618 54.6844 20.6207 54.6844C23.6384 54.6844 27.159 54.1917 29.6738 53.2064C32.6914 54.1917 35.7091 54.6844 38.7268 54.6844C48.7857 54.6844 59.3475 49.2652 58.8446 37.4416V17.2428C59.3475 5.41917 48.7857 0 38.7268 0ZM40.7386 36.4563V18.2281C40.7386 13.7943 39.7327 9.85304 37.2179 6.89713C37.7209 6.89713 38.2238 6.89713 39.2297 6.89713C45.768 6.89713 52.8092 10.3457 52.8092 17.2428V37.4416C52.8092 44.8314 45.768 48.2799 39.2297 48.2799C38.7268 48.2799 38.2238 48.2799 37.2179 48.2799C39.7327 44.8314 41.2415 40.8901 40.7386 36.4563ZM18.609 18.2281V36.4563C18.106 40.8901 19.6149 44.8314 22.1296 48.2799C21.6266 48.2799 21.1237 48.2799 20.1178 48.2799C13.0766 48.2799 6.53829 44.8314 6.53829 37.4416V17.2428C6.53829 9.85304 13.5795 6.89713 20.1178 6.89713C20.6207 6.89713 21.1237 6.89713 21.6266 6.89713C19.6149 9.85304 18.106 13.7943 18.609 18.2281ZM25.1473 37.4416V17.2428C25.1473 13.7943 26.6561 10.8383 29.6738 8.86774C31.6855 10.3457 34.2003 12.809 34.2003 17.2428V37.4416C34.2003 41.8754 31.6855 44.3387 29.6738 45.8167C27.662 44.3387 25.1473 41.8754 25.1473 37.4416Z" fill="#4C12A1"/>
</svg>
